<mxfile host="app.diagrams.net" modified="2020-12-25T16:04:46.215Z" agent="5.0 (X11; Linux x86_64) AppleWebKit/537.36 (KHTML, like Gecko) Chrome/87.0.4280.88 Safari/537.36" etag="l0xQlTNqxzXuJxMeRsuM" version="14.1.1" type="github">
  <diagram id="BFApHqj2zQGc14RBueJt" name="Page-1">
    <mxGraphModel dx="2443" dy="894" grid="1" gridSize="10" guides="1" tooltips="1" connect="1" arrows="1" fold="1" page="1" pageScale="1" pageWidth="1200" pageHeight="1920" math="0" shadow="0">
      <root>
        <mxCell id="0" />
        <mxCell id="1" parent="0" />
        <mxCell id="bmER2QPOODZpMXa38-fE-8" value="需要展示的数据" style="rounded=0;whiteSpace=wrap;html=1;strokeColor=#000000;fillColor=none;" parent="1" vertex="1">
          <mxGeometry x="-220" y="220" width="140" height="90" as="geometry" />
        </mxCell>
        <mxCell id="bmER2QPOODZpMXa38-fE-9" value="" style="rounded=0;whiteSpace=wrap;html=1;strokeColor=#000000;fillColor=none;" parent="1" vertex="1">
          <mxGeometry x="64" y="220" width="200" height="90" as="geometry" />
        </mxCell>
        <mxCell id="bmER2QPOODZpMXa38-fE-13" value="HTML元素" style="rounded=0;whiteSpace=wrap;html=1;strokeColor=#000000;fillColor=none;" parent="1" vertex="1">
          <mxGeometry x="74" y="230" width="80" height="30" as="geometry" />
        </mxCell>
        <mxCell id="bmER2QPOODZpMXa38-fE-14" value="freemarker自带标签" style="rounded=0;whiteSpace=wrap;html=1;strokeColor=#000000;fillColor=none;" parent="1" vertex="1">
          <mxGeometry x="170" y="230" width="84" height="30" as="geometry" />
        </mxCell>
        <mxCell id="bmER2QPOODZpMXa38-fE-15" value="自定义发Freemarker标签" style="rounded=0;whiteSpace=wrap;html=1;strokeColor=#000000;fillColor=none;" parent="1" vertex="1">
          <mxGeometry x="74" y="270" width="180" height="30" as="geometry" />
        </mxCell>
        <mxCell id="bmER2QPOODZpMXa38-fE-16" value="展示出来的静态页面" style="rounded=0;whiteSpace=wrap;html=1;strokeColor=#000000;fillColor=none;" parent="1" vertex="1">
          <mxGeometry x="650" y="236" width="120" height="60" as="geometry" />
        </mxCell>
        <mxCell id="bmER2QPOODZpMXa38-fE-23" value="" style="group" parent="1" vertex="1" connectable="0">
          <mxGeometry x="-38" y="241" width="60" height="50" as="geometry" />
        </mxCell>
        <mxCell id="bmER2QPOODZpMXa38-fE-19" value="" style="rounded=0;whiteSpace=wrap;html=1;strokeColor=#000000;fillColor=none;" parent="bmER2QPOODZpMXa38-fE-23" vertex="1">
          <mxGeometry y="20" width="60" height="10" as="geometry" />
        </mxCell>
        <mxCell id="bmER2QPOODZpMXa38-fE-20" value="" style="rounded=0;whiteSpace=wrap;html=1;strokeColor=#000000;fillColor=none;" parent="bmER2QPOODZpMXa38-fE-23" vertex="1">
          <mxGeometry x="25" width="10" height="50" as="geometry" />
        </mxCell>
        <mxCell id="bmER2QPOODZpMXa38-fE-25" value="" style="rounded=0;whiteSpace=wrap;html=1;strokeColor=#000000;fillColor=none;" parent="1" vertex="1">
          <mxGeometry x="320" y="250" width="290" height="10" as="geometry" />
        </mxCell>
        <mxCell id="bmER2QPOODZpMXa38-fE-26" value="" style="rounded=0;whiteSpace=wrap;html=1;strokeColor=#000000;fillColor=none;" parent="1" vertex="1">
          <mxGeometry x="320" y="270" width="290" height="9" as="geometry" />
        </mxCell>
        <mxCell id="bmER2QPOODZpMXa38-fE-27" value="模板文件定义" style="text;html=1;strokeColor=none;fillColor=none;align=center;verticalAlign=middle;whiteSpace=wrap;rounded=0;" parent="1" vertex="1">
          <mxGeometry x="101" y="330" width="126" height="20" as="geometry" />
        </mxCell>
        <mxCell id="bmER2QPOODZpMXa38-fE-30" value="后台动组装数据" style="text;html=1;strokeColor=none;fillColor=none;align=center;verticalAlign=middle;whiteSpace=wrap;rounded=0;" parent="1" vertex="1">
          <mxGeometry x="-220" y="330" width="126" height="20" as="geometry" />
        </mxCell>
        <mxCell id="bmER2QPOODZpMXa38-fE-31" value="调用template.process(data, writer)方法将模板和数据进行合并形成html,这时候遇到自定义标签时才会去执行自定义标签中的execute方法进行展示！" style="text;html=1;strokeColor=none;fillColor=none;align=left;verticalAlign=middle;whiteSpace=wrap;rounded=0;" parent="1" vertex="1">
          <mxGeometry x="320" y="291" width="300" height="80" as="geometry" />
        </mxCell>
        <mxCell id="bmER2QPOODZpMXa38-fE-32" value="" style="endArrow=none;dashed=1;html=1;" parent="1" edge="1">
          <mxGeometry width="50" height="50" relative="1" as="geometry">
            <mxPoint x="-230" y="400" as="sourcePoint" />
            <mxPoint x="830" y="400" as="targetPoint" />
          </mxGeometry>
        </mxCell>
        <mxCell id="3v1wxRth_Lh8qum5kiFL-3" value="" style="rounded=0;whiteSpace=wrap;html=1;" vertex="1" parent="1">
          <mxGeometry x="-210" y="590" width="870" height="1150" as="geometry" />
        </mxCell>
        <mxCell id="3v1wxRth_Lh8qum5kiFL-7" value="传入栏目ｉｄ" style="text;html=1;strokeColor=none;fillColor=none;align=center;verticalAlign=middle;whiteSpace=wrap;rounded=0;" vertex="1" parent="1">
          <mxGeometry x="220" y="550" width="90" height="20" as="geometry" />
        </mxCell>
        <mxCell id="3v1wxRth_Lh8qum5kiFL-18" value="" style="rounded=0;whiteSpace=wrap;html=1;dashed=1;" vertex="1" parent="1">
          <mxGeometry x="-160" y="618" width="770" height="1102" as="geometry" />
        </mxCell>
        <mxCell id="3v1wxRth_Lh8qum5kiFL-19" value="是否未单篇" style="rhombus;whiteSpace=wrap;html=1;dashed=1;" vertex="1" parent="1">
          <mxGeometry x="165" y="1034" width="80" height="80" as="geometry" />
        </mxCell>
        <mxCell id="3v1wxRth_Lh8qum5kiFL-20" value="&lt;span&gt;遍历栏目列表&lt;/span&gt;" style="rounded=0;whiteSpace=wrap;html=1;dashed=1;" vertex="1" parent="1">
          <mxGeometry x="145" y="730" width="120" height="60" as="geometry" />
        </mxCell>
        <mxCell id="bmER2QPOODZpMXa38-fE-12" value="&lt;div style=&quot;text-align: left&quot;&gt;&lt;span&gt;调用&lt;/span&gt;&lt;span&gt;CmsParserUtil.generateBasic(articleIdList)方法，生成页面。&lt;/span&gt;&lt;/div&gt;&lt;div style=&quot;text-align: left&quot;&gt;&lt;span&gt;注意：&lt;/span&gt;&lt;/div&gt;&lt;div style=&quot;text-align: left&quot;&gt;&lt;span&gt;如果栏目类型为单篇且没有与之对应对内容则手动初始化一条数据。&lt;/span&gt;&lt;/div&gt;" style="rounded=0;whiteSpace=wrap;html=1;strokeColor=#000000;fillColor=none;" parent="1" vertex="1">
          <mxGeometry x="230" y="1290" width="370" height="70" as="geometry" />
        </mxCell>
        <mxCell id="3v1wxRth_Lh8qum5kiFL-9" value="列表，调用&lt;br&gt;CmsParserUtil.generateList(column, articleIdList.size());" style="rounded=0;whiteSpace=wrap;html=1;strokeColor=#000000;fillColor=none;" vertex="1" parent="1">
          <mxGeometry x="-134.5" y="1480" width="331" height="70" as="geometry" />
        </mxCell>
        <mxCell id="3v1wxRth_Lh8qum5kiFL-21" value="" style="endArrow=classic;html=1;entryX=0.5;entryY=0;entryDx=0;entryDy=0;exitX=0.5;exitY=1;exitDx=0;exitDy=0;" edge="1" parent="1" source="3v1wxRth_Lh8qum5kiFL-16" target="3v1wxRth_Lh8qum5kiFL-20">
          <mxGeometry width="50" height="50" relative="1" as="geometry">
            <mxPoint x="205" y="670" as="sourcePoint" />
            <mxPoint x="250" y="670" as="targetPoint" />
          </mxGeometry>
        </mxCell>
        <mxCell id="3v1wxRth_Lh8qum5kiFL-23" value="" style="endArrow=classic;html=1;exitX=0.5;exitY=1;exitDx=0;exitDy=0;" edge="1" parent="1" source="3v1wxRth_Lh8qum5kiFL-29" target="3v1wxRth_Lh8qum5kiFL-19">
          <mxGeometry width="50" height="50" relative="1" as="geometry">
            <mxPoint x="205" y="1004" as="sourcePoint" />
            <mxPoint x="220" y="1014" as="targetPoint" />
          </mxGeometry>
        </mxCell>
        <mxCell id="3v1wxRth_Lh8qum5kiFL-24" value="" style="endArrow=classic;html=1;exitX=1;exitY=0.5;exitDx=0;exitDy=0;entryX=0.5;entryY=0;entryDx=0;entryDy=0;" edge="1" parent="1" source="3v1wxRth_Lh8qum5kiFL-19" target="3v1wxRth_Lh8qum5kiFL-33">
          <mxGeometry width="50" height="50" relative="1" as="geometry">
            <mxPoint x="250" y="1124" as="sourcePoint" />
            <mxPoint x="405" y="1180" as="targetPoint" />
            <Array as="points">
              <mxPoint x="415" y="1074" />
            </Array>
          </mxGeometry>
        </mxCell>
        <mxCell id="3v1wxRth_Lh8qum5kiFL-25" value="" style="endArrow=classic;html=1;exitX=0;exitY=0.5;exitDx=0;exitDy=0;" edge="1" parent="1" source="3v1wxRth_Lh8qum5kiFL-19" target="3v1wxRth_Lh8qum5kiFL-35">
          <mxGeometry width="50" height="50" relative="1" as="geometry">
            <mxPoint x="160" y="1124" as="sourcePoint" />
            <mxPoint y="1230" as="targetPoint" />
            <Array as="points">
              <mxPoint x="26" y="1074" />
            </Array>
          </mxGeometry>
        </mxCell>
        <mxCell id="3v1wxRth_Lh8qum5kiFL-26" value="模板是否存在" style="rhombus;whiteSpace=wrap;html=1;dashed=1;" vertex="1" parent="1">
          <mxGeometry x="165" y="830" width="80" height="80" as="geometry" />
        </mxCell>
        <mxCell id="3v1wxRth_Lh8qum5kiFL-27" value="" style="endArrow=classic;html=1;exitX=1;exitY=0.5;exitDx=0;exitDy=0;entryX=1;entryY=0.5;entryDx=0;entryDy=0;" edge="1" parent="1" source="3v1wxRth_Lh8qum5kiFL-26" target="3v1wxRth_Lh8qum5kiFL-20">
          <mxGeometry width="50" height="50" relative="1" as="geometry">
            <mxPoint x="250" y="920" as="sourcePoint" />
            <mxPoint x="300" y="870" as="targetPoint" />
            <Array as="points">
              <mxPoint x="370" y="870" />
              <mxPoint x="370" y="760" />
            </Array>
          </mxGeometry>
        </mxCell>
        <mxCell id="3v1wxRth_Lh8qum5kiFL-28" value="无模板continue继续循环" style="text;html=1;strokeColor=none;fillColor=none;align=center;verticalAlign=middle;whiteSpace=wrap;rounded=0;dashed=1;" vertex="1" parent="1">
          <mxGeometry x="370" y="810" width="150" height="20" as="geometry" />
        </mxCell>
        <mxCell id="3v1wxRth_Lh8qum5kiFL-29" value="设置查询栏目下文章的栏目ID" style="rounded=0;whiteSpace=wrap;html=1;dashed=1;" vertex="1" parent="1">
          <mxGeometry x="108.5" y="940" width="195" height="60" as="geometry" />
        </mxCell>
        <mxCell id="3v1wxRth_Lh8qum5kiFL-30" value="" style="endArrow=classic;html=1;exitX=0.5;exitY=1;exitDx=0;exitDy=0;" edge="1" parent="1" source="3v1wxRth_Lh8qum5kiFL-20" target="3v1wxRth_Lh8qum5kiFL-26">
          <mxGeometry width="50" height="50" relative="1" as="geometry">
            <mxPoint x="60" y="840" as="sourcePoint" />
            <mxPoint x="110" y="790" as="targetPoint" />
          </mxGeometry>
        </mxCell>
        <mxCell id="3v1wxRth_Lh8qum5kiFL-31" value="" style="endArrow=classic;html=1;exitX=0.5;exitY=1;exitDx=0;exitDy=0;" edge="1" parent="1" source="3v1wxRth_Lh8qum5kiFL-26" target="3v1wxRth_Lh8qum5kiFL-29">
          <mxGeometry width="50" height="50" relative="1" as="geometry">
            <mxPoint x="240" y="970" as="sourcePoint" />
            <mxPoint x="290" y="920" as="targetPoint" />
          </mxGeometry>
        </mxCell>
        <mxCell id="3v1wxRth_Lh8qum5kiFL-32" value="单片" style="text;html=1;strokeColor=none;fillColor=none;align=center;verticalAlign=middle;whiteSpace=wrap;rounded=0;dashed=1;" vertex="1" parent="1">
          <mxGeometry x="300" y="1050" width="50" height="20" as="geometry" />
        </mxCell>
        <mxCell id="3v1wxRth_Lh8qum5kiFL-33" value="查询栏目下的文章" style="rounded=0;whiteSpace=wrap;html=1;dashed=1;" vertex="1" parent="1">
          <mxGeometry x="355" y="1174" width="120" height="60" as="geometry" />
        </mxCell>
        <mxCell id="3v1wxRth_Lh8qum5kiFL-34" value="" style="endArrow=classic;html=1;exitX=0.5;exitY=1;exitDx=0;exitDy=0;entryX=0.5;entryY=0;entryDx=0;entryDy=0;" edge="1" parent="1" source="3v1wxRth_Lh8qum5kiFL-33" target="bmER2QPOODZpMXa38-fE-12">
          <mxGeometry width="50" height="50" relative="1" as="geometry">
            <mxPoint x="390" y="1280" as="sourcePoint" />
            <mxPoint x="405" y="1290" as="targetPoint" />
          </mxGeometry>
        </mxCell>
        <mxCell id="3v1wxRth_Lh8qum5kiFL-16" value="根据id查询出栏目列表(包括自己和子孙)" style="rounded=0;whiteSpace=wrap;html=1;" vertex="1" parent="1">
          <mxGeometry x="145" y="610" width="120" height="60" as="geometry" />
        </mxCell>
        <mxCell id="3v1wxRth_Lh8qum5kiFL-4" value="" style="endArrow=classic;html=1;exitX=0.5;exitY=1;exitDx=0;exitDy=0;entryX=0.5;entryY=0;entryDx=0;entryDy=0;" edge="1" parent="1" source="3v1wxRth_Lh8qum5kiFL-2" target="3v1wxRth_Lh8qum5kiFL-16">
          <mxGeometry width="50" height="50" relative="1" as="geometry">
            <mxPoint x="290" y="700" as="sourcePoint" />
            <mxPoint x="340" y="650" as="targetPoint" />
          </mxGeometry>
        </mxCell>
        <mxCell id="3v1wxRth_Lh8qum5kiFL-2" value="生成栏目按钮" style="ellipse;whiteSpace=wrap;html=1;aspect=fixed;" vertex="1" parent="1">
          <mxGeometry x="165" y="460" width="80" height="80" as="geometry" />
        </mxCell>
        <mxCell id="3v1wxRth_Lh8qum5kiFL-14" value="&lt;meta charset=&quot;utf-8&quot;&gt;&lt;span style=&quot;color: rgb(0, 0, 0); font-family: helvetica; font-size: 12px; font-style: normal; font-weight: 400; letter-spacing: normal; text-align: center; text-indent: 0px; text-transform: none; word-spacing: 0px; background-color: rgb(248, 249, 250); display: inline; float: none;&quot;&gt;genernateColumn&lt;/span&gt;&lt;br style=&quot;color: rgb(0, 0, 0); font-family: helvetica; font-size: 12px; font-style: normal; font-weight: 400; letter-spacing: normal; text-align: center; text-indent: 0px; text-transform: none; word-spacing: 0px; background-color: rgb(248, 249, 250);&quot;&gt;&lt;span style=&quot;color: rgb(0, 0, 0); font-family: helvetica; font-size: 12px; font-style: normal; font-weight: 400; letter-spacing: normal; text-align: center; text-indent: 0px; text-transform: none; word-spacing: 0px; background-color: rgb(248, 249, 250); display: inline; float: none;&quot;&gt;方法&lt;/span&gt;" style="rounded=1;whiteSpace=wrap;html=1;dashed=1;" vertex="1" parent="1">
          <mxGeometry x="-200" y="600" width="120" height="60" as="geometry" />
        </mxCell>
        <mxCell id="3v1wxRth_Lh8qum5kiFL-35" value="封装模板需要的数据，创建PageBean和AttributeBean对象，以实参的方式调用ParserUtil.read(column.getCategoryListUrl(), map, page, attributeBean);方法进而获得模板中列表标签定义的参数比如显示的数据条数，排序方式等等封装到PageBean对象与AttributeBean中。&lt;br&gt;拿到模板中定义的查询条件后进一步设置查询栏目下文章的条件" style="rounded=0;whiteSpace=wrap;html=1;dashed=1;align=left;" vertex="1" parent="1">
          <mxGeometry x="-149" y="1174" width="360" height="116" as="geometry" />
        </mxCell>
        <mxCell id="3v1wxRth_Lh8qum5kiFL-36" value="用从模板中获取的条件查询栏目下的文章" style="rounded=0;whiteSpace=wrap;html=1;dashed=1;" vertex="1" parent="1">
          <mxGeometry x="-29" y="1360" width="120" height="50" as="geometry" />
        </mxCell>
        <mxCell id="3v1wxRth_Lh8qum5kiFL-37" value="" style="endArrow=classic;html=1;" edge="1" parent="1" source="3v1wxRth_Lh8qum5kiFL-35" target="3v1wxRth_Lh8qum5kiFL-36">
          <mxGeometry width="50" height="50" relative="1" as="geometry">
            <mxPoint x="-20" y="1360" as="sourcePoint" />
            <mxPoint x="30" y="1310" as="targetPoint" />
          </mxGeometry>
        </mxCell>
        <mxCell id="3v1wxRth_Lh8qum5kiFL-38" value="" style="endArrow=classic;html=1;" edge="1" parent="1" target="3v1wxRth_Lh8qum5kiFL-9">
          <mxGeometry width="50" height="50" relative="1" as="geometry">
            <mxPoint x="30" y="1410" as="sourcePoint" />
            <mxPoint x="80" y="1360" as="targetPoint" />
          </mxGeometry>
        </mxCell>
        <mxCell id="3v1wxRth_Lh8qum5kiFL-39" value="生成完成" style="ellipse;whiteSpace=wrap;html=1;aspect=fixed;dashed=1;" vertex="1" parent="1">
          <mxGeometry x="166" y="1620" width="80" height="80" as="geometry" />
        </mxCell>
        <mxCell id="3v1wxRth_Lh8qum5kiFL-40" value="" style="endArrow=classic;html=1;exitX=0.5;exitY=1;exitDx=0;exitDy=0;entryX=0;entryY=0;entryDx=0;entryDy=0;" edge="1" parent="1" source="3v1wxRth_Lh8qum5kiFL-9" target="3v1wxRth_Lh8qum5kiFL-39">
          <mxGeometry width="50" height="50" relative="1" as="geometry">
            <mxPoint x="-30" y="1640" as="sourcePoint" />
            <mxPoint x="20" y="1590" as="targetPoint" />
          </mxGeometry>
        </mxCell>
        <mxCell id="3v1wxRth_Lh8qum5kiFL-41" value="" style="endArrow=classic;html=1;exitX=0.5;exitY=1;exitDx=0;exitDy=0;" edge="1" parent="1" source="bmER2QPOODZpMXa38-fE-12" target="3v1wxRth_Lh8qum5kiFL-39">
          <mxGeometry width="50" height="50" relative="1" as="geometry">
            <mxPoint x="380" y="1560" as="sourcePoint" />
            <mxPoint x="430" y="1510" as="targetPoint" />
          </mxGeometry>
        </mxCell>
      </root>
    </mxGraphModel>
  </diagram>
</mxfile>
